<?xml version="1.0" encoding="UTF-8"?>
<svg version="1.1" viewBox="0 0 259 255" xmlns="http://www.w3.org/2000/svg">
<title>Favorite shops</title>
<desc>Created with Sketch.</desc>
<g fill="none" fill-rule="evenodd">
<g transform="translate(10 1)">
<path d="m78.07 75.83c1.2494-0.037958 2.4921-0.19873 3.71-0.48" stroke="#A6A8AB" stroke-linecap="round" stroke-linejoin="round" stroke-width="2"/>
<path d="m89.03 72.24c4-2.79 7.49-7.74 7.49-16.53 0-11.63-6.28-17.51-11.59-20.41" stroke="#A6A8AB" stroke-dasharray="7.93" stroke-linecap="round" stroke-linejoin="round" stroke-width="2"/>
<path d="m81.32 33.67c-1.1716-0.4389-2.3796-0.77353-3.61-1v-3.75" stroke="#A6A8AB" stroke-linecap="round" stroke-linejoin="round" stroke-width="2"/>
<path d="m77.71 20.53v-12.59" stroke="#A6A8AB" stroke-dasharray="8.390000000000001" stroke-linecap="round" stroke-linejoin="round" stroke-width="2"/>
<polyline points="77.71 3.75 77.71 0 73.96 0" stroke="#A6A8AB" stroke-linecap="round" stroke-linejoin="round" stroke-width="2"/>
<path d="m66.12 0h-11.75" stroke="#A6A8AB" stroke-dasharray="7.83" stroke-linecap="round" stroke-linejoin="round" stroke-width="2"/>
<polyline points="50.46 0 46.71 0 46.71 3.75" stroke="#A6A8AB" stroke-linecap="round" stroke-linejoin="round" stroke-width="2"/>
<path d="m46.71 12.14v12.58" stroke="#A6A8AB" stroke-dasharray="8.390000000000001" stroke-linecap="round" stroke-linejoin="round" stroke-width="2"/>
<path d="m46.71 28.91v3.75c-1.2304 0.22647-2.4384 0.5611-3.61 1" stroke="#A6A8AB" stroke-linecap="round" stroke-linejoin="round" stroke-width="2"/>
<path d="m36.18 37.46c-4.3 3.37-8.28 9-8.28 18.24 0 11.33 5.84 16.28 11 18.44" stroke="#A6A8AB" stroke-dasharray="7.93" stroke-linecap="round" stroke-linejoin="round" stroke-width="2"/>
<path d="m42.63 75.35c1.2179 0.28127 2.4606 0.44204 3.71 0.48" stroke="#A6A8AB" stroke-linecap="round" stroke-linejoin="round" stroke-width="2"/>
<path d="m225.5 147.97l-1.22-3.55" stroke="#A6A8AB" stroke-linecap="round" stroke-linejoin="round" stroke-width="2"/>
<path d="m221.89 137.42l-22.75-66.55" stroke="#A6A8AB" stroke-dasharray="7.4" stroke-linecap="round" stroke-linejoin="round" stroke-width="2"/>
<polyline points="197.94 67.37 196.73 63.82 192.98 63.82" stroke="#A6A8AB" stroke-linecap="round" stroke-linejoin="round" stroke-width="2"/>
<path d="m185.77 63.82h-10.8" stroke="#A6A8AB" stroke-dasharray="7.2" stroke-linecap="round" stroke-linejoin="round" stroke-width="2"/>
<polyline points="171.37 63.82 167.62 63.82 166.4 67.37" stroke="#A6A8AB" stroke-linecap="round" stroke-linejoin="round" stroke-width="2"/>
<path d="m164.01 74.38l-22.75 66.54" stroke="#A6A8AB" stroke-dasharray="7.4" stroke-linecap="round" stroke-linejoin="round" stroke-width="2"/>
<path d="m140.06 144.42l-1.21 3.55" stroke="#A6A8AB" stroke-linecap="round" stroke-linejoin="round" stroke-width="2"/>
<path d="m83.3 213.48c0.91713-0.84593 1.7633-1.7657 2.53-2.75" stroke="#A6A8AB" stroke-linecap="round" stroke-linejoin="round" stroke-width="2"/>
<path d="m90.11 204.25c3.83-7 7.84-18.2 7.84-34.48 0-11.77-8.57-26.67-14-34.93" stroke="#A6A8AB" stroke-dasharray="7.77" stroke-linecap="round" stroke-linejoin="round" stroke-width="2"/>
<path d="m81.78 131.6c-1.34-1.92-2.2-3-2.2-3h-3.75" stroke="#A6A8AB" stroke-linecap="round" stroke-linejoin="round" stroke-width="2"/>
<path d="m68.43 128.59h-11.1" stroke="#A6A8AB" stroke-dasharray="7.4" stroke-linecap="round" stroke-linejoin="round" stroke-width="2"/>
<path d="m53.63 128.6h-3.75s-0.85 1.11-2.2 3" stroke="#A6A8AB" stroke-linecap="round" stroke-linejoin="round" stroke-width="2"/>
<path d="m43.41 138.1c-5.29 8.55-11.91 21.32-11.91 31.66 0 19.17 5.57 31.31 9.84 37.81" stroke="#A6A8AB" stroke-dasharray="7.77" stroke-linecap="round" stroke-linejoin="round" stroke-width="2"/>
<path d="m43.62 210.72c0.7667 0.98432 1.6129 1.9041 2.53 2.75" stroke="#A6A8AB" stroke-linecap="round" stroke-linejoin="round" stroke-width="2"/>
<path d="m19.1 93.03v22.65h6.71l5.84-22.65m73.66 0v22.65h-6.71l-5.83-22.65m-71.15 137.51v22.64h6.71l5.84-22.64m73.66 0v22.64h-6.71l-5.83-22.64m46.3-65.54v22.64h6.71l5.83-22.64m68.62 0v22.64h-6.7l-5.84-22.64" fill="#AD1F2D" fill-rule="nonzero"/>
<path d="m0 76.17h124.41v17.06h-124.41v-17.06zm2.52 137.51h124.41v17.06h-124.41v-17.06zm119.96-65.54h119.37v17.06h-119.37v-17.06z" fill="#F9AA8E" fill-rule="nonzero"/>
</g>
</g>
</svg>
